-------------------------------------------------------------------------------

IMDB                             : http://www.imdb.com/title/tt1571565/

Trinh, a mercenary, must complete a series of organized crime jobs for 
her boss in order to win the release of her kidnapped daughter. 
She hires several mercenaries to help, including Quan, 
who she becomes attracted to. Trinh and Quan's relationship becomes
complicated as it becomes evident that their motivations are not the same.

-------------------------------------------------------------------------------

Format                           : AVI
Format/Info                      : Audio Video Interleave
File size                        : 698 MiB
Duration                         : 1h 37mn
Overall bit rate                 : 1 002 Kbps
Writing application              : VirtualDubMod 1.5.10.2 (build 2540/release)
Writing library                  : VirtualDubMod build 2540/release

-------------------------------------------------------------------------------

Video
ID                               : 0
Format                           : MPEG-4 Visual
Format profile                   : Advanced Simple@L5
Format settings, BVOP            : 2
Format settings, QPel            : No
Format settings, GMC             : No warppoints
Format settings, Matrix          : Default (H.263)
Muxing mode                      : Packed bitstream
Codec ID                         : DX50
Codec ID/Hint                    : DivX 5
Duration                         : 1h 37mn
Bit rate                         : 857 Kbps
Width                            : 624 pixels
Height                           : 352 pixels
Display aspect ratio             : 16:9
Frame rate                       : 25.000 fps
Color space                      : YUV
Chroma subsampling               : 4:2:0
Bit depth                        : 8 bits
Scan type                        : Progressive
Compression mode                 : Lossy
Bits/(Pixel*Frame)               : 0.156
Stream size                      : 597 MiB (86%)
Writing library                  : XviD 1.2.1 (UTC 2008-12-04)

-------------------------------------------------------------------------------

Audio
ID                               : 1
Format                           : MPEG Audio
Format version                   : Version 1
Format profile                   : Layer 3
Mode                             : Joint stereo
Mode extension                   : MS Stereo
Codec ID                         : 55
Codec ID/Hint                    : MP3
Duration                         : 1h 37mn
Bit rate mode                    : Variable
Bit rate                         : 132 Kbps
Minimum bit rate                 : 32.0 Kbps
Channel(s)                       : 2 channels
Sampling rate                    : 48.0 KHz
Compression mode                 : Lossy
Stream size                      : 92.1 MiB (13%)
Alignment                        : Aligned on interleaves
Interleave, duration             : 24 ms (0.60 video frame)
Interleave, preload duration     : 139 ms
Writing library                  : LAME3.98r
Encoding settings                : -m j -V 5 -q 2 -lowpass 16.5 --vbr-new -b 32

-------------------------------------------------------------------------------

Subtitles

English and Thai.

-------------------------------------------------------------------------------

Notes:

Shitty audio quality on source..

-------------------------------------------------------------------------------
